<?xml version="1.0" encoding="UTF-8" standalone="no"?><!DOCTYPE svg PUBLIC "-//W3C//DTD SVG 1.1//EN" "http://www.w3.org/Graphics/SVG/1.1/DTD/svg11.dtd"><svg width="100%" height="100%" viewBox="0 0 184 17" version="1.1" xmlns="http://www.w3.org/2000/svg" xmlns:xlink="http://www.w3.org/1999/xlink" xml:space="preserve" xmlns:serif="http://www.serif.com/" style="fill-rule:evenodd;clip-rule:evenodd;stroke-linejoin:round;stroke-miterlimit:2;"><path d="M34.134,15.142l0,0.968l-13.59,0l0,-0.968l2.182,0l0,-14.76l10.485,0l-0.022,2.475l-7.808,0l0,4.32l6.975,0l0,2.453l-6.975,0l0,5.512l8.753,0Z" style="fill:#ff5000;fill-rule:nonzero;"/><path d="M46.65,15.142l0,0.968l-14.198,0l0,-0.968l2.183,0l0,-14.76l2.655,0l0,13.208l7.177,0l0,1.552l2.183,0Z" style="fill:#ff5000;fill-rule:nonzero;"/><path d="M60.786,15.142l0,0.968l-17.28,0l0,-0.968l4.658,0c-1.785,-1.245 -2.678,-3.217 -2.678,-5.917l0,-8.843l2.655,0l0,8.73c0,1.44 0.36,2.58 1.08,3.42c0.72,0.84 1.695,1.26 2.925,1.26c1.23,0 2.205,-0.42 2.925,-1.26c0.72,-0.84 1.08,-1.98 1.08,-3.42l0,-8.73l2.655,0l0,8.843c0,2.715 -0.9,4.687 -2.7,5.917l4.68,0Z" style="fill:#ff5000;fill-rule:nonzero;"/><path d="M61.287,15.142l0,-14.76l11.048,0l0,2.498l-8.393,0l0,4.162l7.538,0l0,2.363l-7.538,0l0,4.207l8.663,0l0,1.53l2.182,0l0,0.968l-15.682,0l0,-0.968l2.182,0Z" style="fill:#ff5000;fill-rule:nonzero;"/><path d="M74.321,15.142l0,-14.76l2.655,0l9.135,11.745l0,-11.745l2.655,0l0,14.76l2.182,0l0,0.968l-5.062,0l-8.91,-11.475l0,11.475l-4.838,0l0,-0.968l2.183,0Z" style="fill:#ff5000;fill-rule:nonzero;"/><path d="M105.827,15.142l0,0.968l-16.56,0l0,-0.968l4.995,0c-1.185,-0.705 -2.119,-1.665 -2.801,-2.88c-0.683,-1.215 -1.024,-2.587 -1.024,-4.117c0,-2.31 0.799,-4.245 2.396,-5.805c1.598,-1.56 3.615,-2.34 6.053,-2.34c2.437,0 4.474,0.9 6.109,2.7l-1.688,1.845c-0.75,-0.72 -1.459,-1.223 -2.126,-1.508c-0.668,-0.285 -1.451,-0.427 -2.351,-0.427c-1.59,0 -2.925,0.514 -4.005,1.541c-1.08,1.028 -1.62,2.34 -1.62,3.938c0,1.597 0.536,2.932 1.608,4.005c1.073,1.072 2.344,1.608 3.814,1.608c0.915,0 1.703,-0.153 2.363,-0.461c0.66,-0.307 1.35,-0.799 2.07,-1.474l1.71,1.755c-0.66,0.72 -1.29,1.26 -1.89,1.62l2.947,0Z" style="fill:#ff5000;fill-rule:nonzero;"/><path d="M109.816,15.142l0,-5.242l-5.85,-9.518l2.902,0l4.298,7.155l4.297,-7.155l2.903,0l-5.85,9.518l0,5.242l5.67,0l0,0.968l-14.04,0l0,-0.968l5.67,0Z" style="fill:#ff5000;fill-rule:nonzero;"/><rect x="118.186" y="15.142" width="6.165" height="0.967" style="fill:#ff5000;fill-rule:nonzero;"/><path d="M140.264,15.142l0,0.968l-17.595,0l0,-0.968l2.183,0l0,-14.76l5.4,0c2.82,0 4.987,0.687 6.502,2.059c1.515,1.373 2.273,3.304 2.273,5.794c0,3.345 -1.32,5.647 -3.96,6.907l5.197,0Zm-3.915,-6.907c0,-3.6 -2.062,-5.4 -6.187,-5.4l-2.655,0l0,10.777l2.947,0c1.905,0 3.364,-0.453 4.377,-1.361c1.012,-0.907 1.518,-2.246 1.518,-4.016Z" style="fill:#ff5000;fill-rule:nonzero;"/><path d="M140.765,15.142l0,-14.76l11.048,0l0,2.498l-8.393,0l0,4.162l7.538,0l0,2.363l-7.538,0l0,4.207l8.663,0l0,1.53l2.182,0l0,0.968l-15.682,0l0,-0.968l2.182,0Z" style="fill:#ff5000;fill-rule:nonzero;"/><path d="M165.792,15.142l0,0.968l-14.175,0l0,-0.968l2.88,0c-0.72,-0.375 -1.38,-0.84 -1.98,-1.395l1.665,-2.002c1.59,1.38 3.24,2.07 4.95,2.07c0.855,0 1.533,-0.184 2.036,-0.551c0.502,-0.368 0.754,-0.855 0.754,-1.463c0,-0.607 -0.237,-1.08 -0.709,-1.417c-0.473,-0.338 -1.286,-0.645 -2.441,-0.923c-1.155,-0.277 -2.033,-0.532 -2.633,-0.765c-0.6,-0.232 -1.132,-0.536 -1.597,-0.911c-0.93,-0.705 -1.395,-1.785 -1.395,-3.24c0,-1.455 0.528,-2.576 1.586,-3.364c1.057,-0.787 2.366,-1.181 3.926,-1.181c1.005,0 2.003,0.165 2.993,0.495c0.99,0.33 1.845,0.795 2.565,1.395l-1.418,2.002c-0.465,-0.42 -1.095,-0.765 -1.89,-1.035c-0.795,-0.27 -1.579,-0.405 -2.351,-0.405c-0.773,0 -1.406,0.158 -1.901,0.473c-0.495,0.315 -0.743,0.791 -0.743,1.429c0,0.637 0.248,1.125 0.743,1.462c0.495,0.338 1.548,0.701 3.161,1.091c1.612,0.39 2.827,0.938 3.645,1.643c0.817,0.705 1.226,1.695 1.226,2.97c0,1.545 -0.57,2.752 -1.71,3.622l2.813,0Z" style="fill:#ff5000;fill-rule:nonzero;"/><path d="M166.293,15.142l0,-14.76l2.655,0l0,7.673l7.2,-7.673l3.375,0l-6.323,6.885l5.715,7.898l0,-0.023l2.183,0l0,0.968l-4.635,0l-5.22,-6.885l-2.295,2.475l0,4.41l-4.838,0l0,-0.968l2.183,0Z" style="fill:#ff5000;fill-rule:nonzero;"/><path d="M16.14,0.041l-11.538,0l-4.602,16.125l11.538,0l4.602,-16.125Z" style="fill:#ff5200;"/></svg>