<?xml version="1.0" encoding="UTF-8" standalone="no"?>
<!DOCTYPE svg PUBLIC "-//W3C//DTD SVG 1.1//EN" "http://www.w3.org/Graphics/SVG/1.1/DTD/svg11.dtd">
<svg width="100%" height="100%" viewBox="0 0 314 66" version="1.1" xmlns="http://www.w3.org/2000/svg" xmlns:xlink="http://www.w3.org/1999/xlink" xml:space="preserve" xmlns:serif="http://www.serif.com/" style="fill-rule:evenodd;clip-rule:evenodd;stroke-linejoin:round;stroke-miterlimit:2;">
    <g transform="matrix(1,0,0,1,-117.139,-95.3732)">
        <path d="M184.518,149.843C187.688,144.323 189.356,138.061 189.356,131.687C189.356,111.645 173.176,95.373 153.247,95.373C133.319,95.373 117.139,111.645 117.139,131.687C117.139,138.061 118.807,144.323 121.977,149.843L184.518,149.843Z" style="fill:rgb(98,163,200);"/>
    </g>
    <g transform="matrix(1,0,0,1,-104.326,-26.1562)">
        <g transform="matrix(64,0,0,64,191.643,80.1822)">
            <path d="M0.347,-0.56C0.402,-0.56 0.446,-0.541 0.479,-0.504C0.512,-0.466 0.528,-0.415 0.528,-0.35L0.528,-0.201C0.528,-0.136 0.512,-0.085 0.479,-0.047C0.446,-0.009 0.402,0.01 0.347,0.01C0.306,0.01 0.273,-0 0.248,-0.021C0.222,-0.041 0.206,-0.069 0.201,-0.105L0.198,-0.105L0.202,0.026L0.202,0.18L0.077,0.18L0.077,-0.55L0.199,-0.55L0.199,-0.445L0.201,-0.445C0.206,-0.481 0.222,-0.509 0.248,-0.53C0.273,-0.55 0.306,-0.56 0.347,-0.56ZM0.403,-0.344C0.403,-0.379 0.394,-0.405 0.377,-0.424C0.36,-0.443 0.335,-0.452 0.303,-0.452C0.272,-0.452 0.247,-0.443 0.229,-0.424C0.211,-0.405 0.202,-0.378 0.202,-0.344L0.202,-0.206C0.202,-0.172 0.211,-0.146 0.229,-0.127C0.247,-0.108 0.272,-0.098 0.303,-0.098C0.335,-0.098 0.36,-0.107 0.377,-0.126C0.394,-0.145 0.403,-0.171 0.403,-0.206L0.403,-0.344Z" style="fill-rule:nonzero;"/>
        </g>
        <g transform="matrix(64,0,0,64,230.043,80.1822)">
            <path d="M0.3,0.01C0.23,0.01 0.175,-0.01 0.135,-0.049C0.095,-0.088 0.075,-0.141 0.075,-0.208L0.075,-0.55L0.2,-0.55L0.2,-0.209C0.2,-0.174 0.209,-0.147 0.226,-0.128C0.243,-0.109 0.268,-0.099 0.3,-0.099C0.332,-0.099 0.357,-0.109 0.374,-0.128C0.391,-0.147 0.4,-0.174 0.4,-0.209L0.4,-0.55L0.525,-0.55L0.525,-0.208C0.525,-0.141 0.505,-0.088 0.465,-0.049C0.424,-0.01 0.369,0.01 0.3,0.01Z" style="fill-rule:nonzero;"/>
        </g>
        <g transform="matrix(64,0,0,64,268.443,80.1822)">
            <path d="M0.398,-0.73L0.523,-0.73L0.523,-0L0.401,-0L0.401,-0.105L0.399,-0.105C0.394,-0.069 0.378,-0.041 0.353,-0.021C0.327,-0 0.294,0.01 0.253,0.01C0.198,0.01 0.154,-0.009 0.121,-0.047C0.088,-0.084 0.072,-0.135 0.072,-0.2L0.072,-0.349C0.072,-0.414 0.088,-0.465 0.121,-0.503C0.154,-0.541 0.198,-0.56 0.253,-0.56C0.294,-0.56 0.327,-0.55 0.353,-0.53C0.378,-0.509 0.394,-0.481 0.399,-0.445L0.402,-0.445L0.398,-0.576L0.398,-0.73ZM0.297,-0.098C0.329,-0.098 0.354,-0.108 0.372,-0.127C0.389,-0.146 0.398,-0.172 0.398,-0.206L0.398,-0.344C0.398,-0.378 0.389,-0.404 0.372,-0.423C0.354,-0.442 0.329,-0.451 0.297,-0.451C0.265,-0.451 0.24,-0.442 0.223,-0.424C0.206,-0.405 0.197,-0.379 0.197,-0.344L0.197,-0.206C0.197,-0.171 0.206,-0.145 0.223,-0.126C0.24,-0.107 0.265,-0.098 0.297,-0.098Z" style="fill-rule:nonzero;"/>
        </g>
        <g transform="matrix(64,0,0,64,306.843,80.1822)">
            <path d="M0.398,-0.73L0.523,-0.73L0.523,-0L0.401,-0L0.401,-0.105L0.399,-0.105C0.394,-0.069 0.378,-0.041 0.353,-0.021C0.327,-0 0.294,0.01 0.253,0.01C0.198,0.01 0.154,-0.009 0.121,-0.047C0.088,-0.084 0.072,-0.135 0.072,-0.2L0.072,-0.349C0.072,-0.414 0.088,-0.465 0.121,-0.503C0.154,-0.541 0.198,-0.56 0.253,-0.56C0.294,-0.56 0.327,-0.55 0.353,-0.53C0.378,-0.509 0.394,-0.481 0.399,-0.445L0.402,-0.445L0.398,-0.576L0.398,-0.73ZM0.297,-0.098C0.329,-0.098 0.354,-0.108 0.372,-0.127C0.389,-0.146 0.398,-0.172 0.398,-0.206L0.398,-0.344C0.398,-0.378 0.389,-0.404 0.372,-0.423C0.354,-0.442 0.329,-0.451 0.297,-0.451C0.265,-0.451 0.24,-0.442 0.223,-0.424C0.206,-0.405 0.197,-0.379 0.197,-0.344L0.197,-0.206C0.197,-0.171 0.206,-0.145 0.223,-0.126C0.24,-0.107 0.265,-0.098 0.297,-0.098Z" style="fill-rule:nonzero;"/>
        </g>
        <g transform="matrix(64,0,0,64,345.243,80.1822)">
            <path d="M0.38,-0C0.325,-0 0.282,-0.016 0.249,-0.049C0.216,-0.082 0.199,-0.125 0.199,-0.178L0.199,-0.617L0.031,-0.617L0.031,-0.73L0.324,-0.73L0.324,-0.178C0.324,-0.159 0.33,-0.143 0.342,-0.131C0.353,-0.119 0.369,-0.113 0.388,-0.113L0.559,-0.113L0.559,-0L0.38,-0Z" style="fill-rule:nonzero;"/>
        </g>
        <g transform="matrix(64,0,0,64,383.643,80.1822)">
            <path d="M0.528,-0.245L0.192,-0.245L0.192,-0.206C0.192,-0.128 0.229,-0.089 0.302,-0.089C0.33,-0.089 0.352,-0.094 0.369,-0.104C0.386,-0.113 0.396,-0.127 0.401,-0.146L0.525,-0.146C0.516,-0.099 0.491,-0.061 0.45,-0.033C0.409,-0.004 0.36,0.01 0.301,0.01C0.254,0.01 0.214,0.001 0.18,-0.017C0.145,-0.035 0.119,-0.06 0.1,-0.093C0.081,-0.125 0.072,-0.163 0.072,-0.206L0.072,-0.344C0.072,-0.387 0.081,-0.425 0.1,-0.458C0.119,-0.49 0.145,-0.515 0.18,-0.533C0.215,-0.551 0.255,-0.56 0.301,-0.56C0.347,-0.56 0.387,-0.551 0.421,-0.533C0.455,-0.515 0.481,-0.49 0.5,-0.458C0.519,-0.425 0.528,-0.387 0.528,-0.344L0.528,-0.245ZM0.192,-0.323L0.408,-0.325L0.408,-0.345C0.408,-0.384 0.399,-0.413 0.381,-0.433C0.363,-0.453 0.336,-0.463 0.301,-0.463C0.265,-0.463 0.238,-0.453 0.22,-0.433C0.201,-0.412 0.192,-0.383 0.192,-0.344L0.192,-0.323Z" style="fill-rule:nonzero;"/>
        </g>
    </g>
</svg>
